# xmcd
#
# Track frame offsets:
#	182
#	18710
#	34632
#	52447
#	70077
#	84080
#	99985
#	110717
#	130052
#	144120
#	160932
#	174822
#	190032
#	204040
#	222397
#	240392
#
# Disc length: 3388 seconds
#
# Revision: 10
# Processed by: cddbd v1.5.2PL0 Copyright (c) Steve Scherf et al.
# Submitted via: audiograbber 1.83.01
#
DISCID=cd0d3a10
DTITLE=Various Artist - The Island Story - 1962-1967 - 25th Anniversary  [CD2)
DTITLE=
DYEAR=1987
DGENRE=Oldies
TTITLE0=Bob Marley and The Wailers - No Woman No Cry
TTITLE1=Jim Capaldi - Love Hurts
TTITLE2=Joe Cocker and Jennifer Warnes - Up Where We Belong
TTITLE3=Gwen Guthrie - Padlock
TTITLE4=Jimmy Cliff - The Harder They Come
TTITLE5=Pete Wingfield - Eighteen With A Bullet
TTITLE6=Fairport Convention - Si Tu Dois Partir
TTITLE7=Tom Waits - Innocent When You Dream (Bar Room)
TTITLE8=Julian Cope - World Shut Your Mouth
TTITLE9=Will Powers - Adventures In Success
TTITLE10=Amazulu - Montego Bay
TTITLE11=Buggles - Video Killed The Radio Star
TTITLE12=Sparks - This Town Ain't Big Enough For The Both Of Us
TTITLE13=Eddie And The Hot Rods - Do Anything You Wanna Do
TTITLE14=Christians - Forgotten Town
TTITLE15=Frankie Goes To Hollywood - Relax
EXTD=A compillation of artists that have been part of Island\nRecord First 25 y
EXTD=ears YEAR: 1987
EXTT0=
EXTT1=
EXTT2=
EXTT3=
EXTT4=
EXTT5=
EXTT6=
EXTT7=
EXTT8=
EXTT9=
EXTT10=
EXTT11=
EXTT12=
EXTT13=
EXTT14=
EXTT15=
PLAYORDER=
